<svg width="141" height="50" viewBox="0 0 141 50" fill="none" xmlns="http://www.w3.org/2000/svg">
<circle cx="24.5" cy="24.9998" r="23.5" fill="#D90429" stroke="#D90429" stroke-width="2"/>
<path d="M21.1875 27.0773L23.822 20.405L21.188 27.0773L21.1875 27.0773Z" fill="url(#paint0_linear_0_587)"/>
<path d="M25.3232 24.2778L25.3229 24.2781L23.8135 20.405L25.3232 24.2776L25.3232 24.2778Z" fill="url(#paint1_linear_0_587)"/>
<path d="M33.1234 26.8835C33.1234 26.8835 31.7648 27.0834 29.9128 27.8227C29.0883 28.1516 28.1658 28.5878 27.2217 29.1608L30.1529 36.729L37.2622 36.729L33.1234 26.8835Z" fill="url(#paint2_linear_0_587)"/>
<path d="M30.7947 21.3838C28.8966 22.2197 27.0624 23.2095 25.3232 24.2772C25.3232 24.2775 25.3229 24.2775 25.3229 24.2775L23.8135 20.4044L27.0601 12.4998L30.7947 21.3838Z" fill="url(#paint3_linear_0_587)"/>
<path d="M27.0686 12.4998L23.8218 20.4046L21.1878 27.0769L21.1875 27.0769C14.8055 31.7771 10.4922 36.7298 10.4922 36.7298L20.6774 12.4998L27.0686 12.4998Z" fill="url(#paint4_linear_0_587)"/>
<path d="M26.7002 27.8366L26.7002 27.8415C26.71 27.8341 26.7173 27.8279 26.7247 27.8206L26.7002 27.8366Z" fill="url(#paint5_linear_0_587)"/>
<path d="M22.4424 33.6402C22.4462 33.6338 22.4488 33.6248 22.4526 33.6184C22.4488 33.6248 22.4475 33.6325 22.4462 33.6351C22.4449 33.6376 22.4424 33.6402 22.4424 33.6402Z" fill="url(#paint6_linear_0_587)"/>
<path d="M32.5019 25.4416L32.035 24.3304L32.0266 24.3101C32.0266 24.3101 29.3575 25.4373 26.6949 27.8244C26.6937 27.8256 26.692 27.827 26.6904 27.8285C25.0708 29.2813 23.4542 31.2008 22.4431 33.6165C22.4429 33.6172 22.4424 33.6177 22.4424 33.6184C23.8195 31.6011 25.5466 30.1697 27.2071 29.1622C30.2709 27.303 33.1088 26.8852 33.1088 26.8852L32.5017 25.4414L32.5019 25.4416Z" fill="url(#paint7_linear_0_587)"/>
<path d="M38.7273 19.0244C36.2756 19.9506 34.0822 20.9957 32.1235 22.1045C29.2761 23.7159 26.926 25.4604 25.0051 27.1644C19.4227 32.117 17.4644 36.7275 17.4644 36.7275L10.4922 36.7275C10.4922 36.7275 14.8058 31.7749 21.1878 27.0751C21.5945 26.776 22.0097 26.4771 22.4324 26.181C23.3629 25.5294 24.3314 24.8893 25.3315 24.2754C27.0707 23.2075 28.9049 22.2177 30.8032 21.3818C33.3566 20.2564 36.0242 19.4093 38.7273 19.0244Z" fill="url(#paint8_linear_0_587)"/>
<path d="M38.7217 19.0255L38.7259 19.0244L38.7217 19.0255Z" fill="url(#paint9_linear_0_587)"/>
<path d="M22.4455 33.6184L22.4424 33.6226L22.4455 33.6184Z" fill="url(#paint10_linear_0_587)"/>
<path d="M57.33 36.9998L65.04 14.6498L70.32 14.6498L78.03 36.9998L73.59 36.9998L72 32.1998L63.36 32.1998L61.74 36.9998L57.33 36.9998ZM64.53 28.5998L70.83 28.5998L67.11 17.4698L68.25 17.4698L64.53 28.5998ZM80.1874 36.9998L80.1874 20.6798L83.8774 20.6798L83.8774 24.3098L83.5774 23.7698C83.9574 22.5498 84.5474 21.6998 85.3474 21.2198C86.1674 20.7398 87.1474 20.4998 88.2874 20.4998L89.2474 20.4998L89.2474 23.9798L87.8374 23.9798C86.7174 23.9798 85.8174 24.3298 85.1374 25.0298C84.4574 25.7098 84.1174 26.6698 84.1174 27.9098L84.1174 36.9998L80.1874 36.9998ZM99.3881 37.3598C97.7881 37.3598 96.3281 36.9898 95.0081 36.2498C93.7081 35.5098 92.6681 34.4998 91.8881 33.2198C91.1281 31.9398 90.7481 30.4798 90.7481 28.8398C90.7481 27.1998 91.1281 25.7398 91.8881 24.4598C92.6681 23.1798 93.7081 22.1698 95.0081 21.4298C96.3081 20.6898 97.7681 20.3198 99.3881 20.3198C100.988 20.3198 102.438 20.6898 103.738 21.4298C105.038 22.1698 106.068 23.1798 106.828 24.4598C107.608 25.7198 107.998 27.1798 107.998 28.8398C107.998 30.4798 107.608 31.9398 106.828 33.2198C106.048 34.4998 105.008 35.5098 103.708 36.2498C102.408 36.9898 100.968 37.3598 99.3881 37.3598ZM99.3881 33.7598C100.268 33.7598 101.038 33.5498 101.698 33.1298C102.378 32.7098 102.908 32.1298 103.288 31.3898C103.688 30.6298 103.888 29.7798 103.888 28.8398C103.888 27.8798 103.688 27.0398 103.288 26.3198C102.908 25.5798 102.378 24.9998 101.698 24.5798C101.038 24.1398 100.268 23.9198 99.3881 23.9198C98.4881 23.9198 97.6981 24.1398 97.0181 24.5798C96.3381 24.9998 95.7981 25.5798 95.3981 26.3198C95.0181 27.0398 94.8281 27.8798 94.8281 28.8398C94.8281 29.7798 95.0181 30.6298 95.3981 31.3898C95.7981 32.1298 96.3381 32.7098 97.0181 33.1298C97.6981 33.5498 98.4881 33.7598 99.3881 33.7598ZM118.958 37.3598C117.358 37.3598 115.898 36.9898 114.578 36.2498C113.278 35.5098 112.238 34.4998 111.458 33.2198C110.698 31.9398 110.318 30.4798 110.318 28.8398C110.318 27.1998 110.698 25.7398 111.458 24.4598C112.238 23.1798 113.278 22.1698 114.578 21.4298C115.878 20.6898 117.338 20.3198 118.958 20.3198C120.558 20.3198 122.008 20.6898 123.308 21.4298C124.608 22.1698 125.638 23.1798 126.398 24.4598C127.178 25.7198 127.568 27.1798 127.568 28.8398C127.568 30.4798 127.178 31.9398 126.398 33.2198C125.618 34.4998 124.578 35.5098 123.278 36.2498C121.978 36.9898 120.538 37.3598 118.958 37.3598ZM118.958 33.7598C119.838 33.7598 120.608 33.5498 121.268 33.1298C121.948 32.7098 122.478 32.1298 122.858 31.3898C123.258 30.6298 123.458 29.7798 123.458 28.8398C123.458 27.8798 123.258 27.0398 122.858 26.3198C122.478 25.5798 121.948 24.9998 121.268 24.5798C120.608 24.1398 119.838 23.9198 118.958 23.9198C118.058 23.9198 117.268 24.1398 116.588 24.5798C115.908 24.9998 115.368 25.5798 114.968 26.3198C114.588 27.0398 114.398 27.8798 114.398 28.8398C114.398 29.7798 114.588 30.6298 114.968 31.3898C115.368 32.1298 115.908 32.7098 116.588 33.1298C117.268 33.5498 118.058 33.7598 118.958 33.7598ZM132.087 36.9998L132.087 24.1898L129.207 24.1898L129.207 20.6798L132.087 20.6798L132.087 20.1398C132.087 18.8998 132.337 17.8498 132.837 16.9898C133.357 16.1098 134.077 15.4398 134.997 14.9798C135.917 14.5198 137.007 14.2898 138.267 14.2898C138.507 14.2898 138.767 14.3098 139.047 14.3498C139.347 14.3698 139.597 14.3998 139.797 14.4398L139.797 17.8298C139.597 17.7898 139.407 17.7698 139.227 17.7698C139.067 17.7498 138.917 17.7398 138.777 17.7398C137.897 17.7398 137.217 17.9398 136.737 18.3398C136.257 18.7198 136.017 19.3198 136.017 20.1398L136.017 20.6798L139.647 20.6798L139.647 24.1898L136.017 24.1898L136.017 36.9998L132.087 36.9998Z" fill="#111E37"/>
<defs>
<linearGradient id="paint0_linear_0_587" x1="21.1875" y1="23.7411" x2="23.822" y2="23.7411" gradientUnits="userSpaceOnUse">
<stop stop-color="white"/>
<stop offset="1" stop-color="white"/>
</linearGradient>
<linearGradient id="paint1_linear_0_587" x1="23.8135" y1="22.3416" x2="25.3232" y2="22.3416" gradientUnits="userSpaceOnUse">
<stop stop-color="white"/>
<stop offset="1" stop-color="white"/>
</linearGradient>
<linearGradient id="paint2_linear_0_587" x1="27.2217" y1="31.8063" x2="37.2622" y2="31.8063" gradientUnits="userSpaceOnUse">
<stop stop-color="white"/>
<stop offset="1" stop-color="white"/>
</linearGradient>
<linearGradient id="paint3_linear_0_587" x1="23.8135" y1="18.3886" x2="30.7947" y2="18.3886" gradientUnits="userSpaceOnUse">
<stop stop-color="white"/>
<stop offset="1" stop-color="white"/>
</linearGradient>
<linearGradient id="paint4_linear_0_587" x1="10.4922" y1="24.6148" x2="27.0686" y2="24.6148" gradientUnits="userSpaceOnUse">
<stop stop-color="white"/>
<stop offset="1" stop-color="white"/>
</linearGradient>
<linearGradient id="paint5_linear_0_587" x1="26.7002" y1="27.831" x2="26.7247" y2="27.831" gradientUnits="userSpaceOnUse">
<stop stop-color="white"/>
<stop offset="1" stop-color="white"/>
</linearGradient>
<linearGradient id="paint6_linear_0_587" x1="22.4424" y1="33.6293" x2="22.4526" y2="33.6293" gradientUnits="userSpaceOnUse">
<stop stop-color="white"/>
<stop offset="1" stop-color="white"/>
</linearGradient>
<linearGradient id="paint7_linear_0_587" x1="22.4424" y1="28.9642" x2="33.1088" y2="28.9642" gradientUnits="userSpaceOnUse">
<stop stop-color="white"/>
<stop offset="1" stop-color="white"/>
</linearGradient>
<linearGradient id="paint8_linear_0_587" x1="10.4922" y1="27.8759" x2="38.7275" y2="27.8759" gradientUnits="userSpaceOnUse">
<stop stop-color="white"/>
<stop offset="1" stop-color="white"/>
</linearGradient>
<linearGradient id="paint9_linear_0_587" x1="38.7217" y1="19.0249" x2="38.7259" y2="19.0249" gradientUnits="userSpaceOnUse">
<stop stop-color="white"/>
<stop offset="1" stop-color="white"/>
</linearGradient>
<linearGradient id="paint10_linear_0_587" x1="22.4424" y1="33.6205" x2="22.4455" y2="33.6205" gradientUnits="userSpaceOnUse">
<stop stop-color="white"/>
<stop offset="1" stop-color="white"/>
</linearGradient>
</defs>
</svg>
